# xmcd CD database file
#
# Track frame offsets:
#	151
#	11082
#	21564
#	38005
#	49753
#	60461
#	72544
#	86640
#	102201
#	112436
#	121493
#	133530
#	145603
#	157073
#	168158
#	179458
#	189590
#	200357
#	212304
#	223663
#	234975
#	247375
#	258769
#	268960
#	279497
#	290976
#	301816
#	311944
#	324350
#	336990
#
# Disc length: 4621 seconds
#
# Revision: 2
# Processed by: cddbd v1.4PL0 Copyright (c) Steve Scherf et al.
# Submitted via: CDex 1.50
#
DISCID=d5120b1e
DTITLE=Mickey and Sylvia - Love Is Strange [CD 2)
DYEAR=1990
DGENRE=Vintage R&B
TTITLE0=There'll Be No Backin' Out
TTITLE1=Summertime
TTITLE2=Rock And Stroll Room (Take 1)
TTITLE3=Rock And Stroll Room (Take 12)
TTITLE4=It's You I Love
TTITLE5=True True Love
TTITLE6=Bewildered (Take 2)
TTITLE7=Bewildered (Take 9)
TTITLE8=Oh Yeah! Uh Huh
TTITLE9=To The Valley
TTITLE10=Mommy Out De Light
TTITLE11=Gonna Work Out Fine
TTITLE12=What Would I Do
TTITLE13=Sweeter As The Day Goes By
TTITLE14=I'm Glad For Your Sake
TTITLE15=I Hear You Knockin'
TTITLE16=Love Lesson
TTITLE17=This Is My Story
TTITLE18=Baby You're So Fine (1)
TTITLE19=Love Is The Only Thing
TTITLE20=No Good Lover
TTITLE21=Dearest
TTITLE22=Baby You're So Fine (2)
TTITLE23=From The Beginning Of Time
TTITLE24=Gypsy
TTITLE25=Yours
TTITLE26=Let's Shake Some More
TTITLE27=From The Beginning Of Time
TTITLE28=Fallin' In Love
TTITLE29=Baby You're So Fine (3)
EXTD=YEAR: 1990
EXTT0=
EXTT1=
EXTT2=
EXTT3=
EXTT4=
EXTT5=
EXTT6=
EXTT7=
EXTT8=
EXTT9=
EXTT10=
EXTT11=
EXTT12=
EXTT13=
EXTT14=
EXTT15=
EXTT16=
EXTT17=
EXTT18=
EXTT19=
EXTT20=
EXTT21=
EXTT22=
EXTT23=
EXTT24=
EXTT25=
EXTT26=
EXTT27=
EXTT28=
EXTT29=
PLAYORDER=
